<svg xmlns="http://www.w3.org/2000/svg" width="982" height="447" viewBox="0 0 982 447" version="1.1" role="img" aria-labelledby="title desc">
  <title id="title">ZAI left-flat italic vector logo</title>
  <desc id="desc">A right-leaning italic version of the ZAI wordmark with the left side cropped flat before applying the overall slant.</desc>
  <path d="M 538.374 34.689 C 537.205 34.919, 535.333 36.095, 534.215 37.303 C 532.223 39.455, 475.343 115.381, 443.315 158.640 C 434.414 170.663, 410.114 203.299, 389.315 231.165 C 368.517 259.031, 342.623 293.793, 331.774 308.415 L 312.049 335 217.441 335 C 160.775 335, 122.967 334.634, 123.167 334.087 C 123.350 333.584, 133.850 321.549, 146.500 307.342 C 159.150 293.134, 188.605 259.908, 211.955 233.505 C 235.305 207.102, 259.837 179.425, 266.471 172 C 289.194 146.568, 301.985 131.827, 358.451 66 C 370.481 51.975, 381.460 39.262, 382.849 37.750 L 385.374 35 192.687 35 L 0 35 0 70.500 L 0 106 108 106 C 167.400 106, 216 106.273, 216 106.606 C 216 108.722, 186.433 142.042, 78.996 261 C 54.408 288.225, 26.577 319.050, 17.151 329.500 L 0.012 348.500 0.006 380.250 L 0 412 173.801 412 L 347.602 412 360.312 395.250 C 367.302 386.038, 389.622 356.450, 409.913 329.500 C 430.203 302.550, 455.467 269.025, 466.055 255 C 476.642 240.975, 496.769 214.273, 510.780 195.663 C 531.751 167.809, 536.482 162.063, 537.537 163.163 C 538.669 164.343, 587.149 242.220, 604.980 271.500 C 608.664 277.550, 619.457 295.100, 628.964 310.500 C 638.471 325.900, 656.390 355.037, 668.784 375.250 L 691.318 412 737.694 412 L 784.070 412 782.932 409.873 C 781.617 407.416, 748.495 354.441, 720.487 310 C 692.194 265.106, 673.796 235.730, 608.574 131.302 C 543.678 27.398, 547.653 32.869, 538.374 34.689 M 785 199.527 L 785 365.055 799.101 388.527 L 813.201 412 840.601 412 L 868 412 868 223 L 868 34 826.500 34 L 785 34 785 199.527 M 482.405 298.736 C 481.803 299.156, 474.615 307.825, 466.432 318 C 458.249 328.175, 446.479 342.788, 440.277 350.474 C 434.075 358.160, 429 364.797, 429 365.224 C 429 365.651, 472.894 366, 526.542 366 L 624.084 366 621.319 361.250 C 615.613 351.447, 584.781 300.457, 583.947 299.445 C 582.925 298.204, 484.157 297.515, 482.405 298.736" stroke="none" fill="#050505" fill-rule="evenodd" transform="matrix(1 0 -0.176327 1 78.918 0)"/>
</svg>
